{"title":"Stalked By My Doctor [1080p]","uid":15756188,"size":3736237085,"categoryP":"video","categoryS":"hd___movies","magnet":"?xt=urn:btih:e2967bc14aab22e50527032a89bb521c4b7666aa&amp;dn=Stalked+By+My+Doctor+%5B1080p%5D+&amp;tr=udp%3A%2F%2Ftracker.leechers-paradise.org%3A6969&amp;tr=udp%3A%2F%2Fzer0day.ch%3A1337&amp;tr=udp%3A%2F%2Fopen.demonii.com%3A1337&amp;tr=udp%3A%2F%2Ftracker.coppersurfer.tk%3A6969&amp;tr=udp%3A%2F%2Fexodus.desync.com%3A6969","seeders":0,"leechers":2,"uploader":"fjn61783","files":2,"time":1473056247,"description":"Stalked By My Doctor [1080p] \r\n\r\n*Folder includes English .srt files (subtitles) \r\n\r\nIMDB- http://www.imdb.com/title/tt5252624/?ref_=nv_sr_1 \r\n\r\nFormat : Matroska \r\nFormat version : Version 4 / Version 2 \r\nFile size : 3.48 GiB \r\nDuration : 1 h 28 min \r\nOverall bit rate : 5 654 kb/s \r\n\r\nVideo \r\nID : 2 \r\nFormat : AVC \r\nFormat/Info : Advanced Video Codec \r\nFormat profile :    \r\nFormat settings, CABAC : Yes \r\nFormat settings, ReFrames : 4 frames \r\nCodec ID : V_MPEG4/ISO/AVC \r\nDuration : 1 h 28 min \r\nBit rate : 5 142 kb/s \r\nWidth : 1 904 pixels \r\nHeight : 1 064 pixels \r\nDisplay aspect ratio : 16:9 \r\nFrame rate mode : Constant \r\nFrame rate : 23.976 (23976/1000) FPS \r\nColor space : YUV \r\nChroma subsampling : 4:2:0 \r\nBit depth : 8 bits \r\nScan type : Progressive \r\nBits/(Pixel*Frame) : 0.106 \r\nStream size : 3.16 GiB (91%) \r\nLanguage : English \r\nDefault : Yes \r\nForced : No \r\n\r\nAudio #1 \r\nID : 1 \r\nFormat : AAC \r\nFormat/Info : Advanced Audio Codec \r\nFormat profile : LC \r\nCodec ID : A_AAC \r\nDuration : 1 h 28 min \r\nBit rate : 125 kb/s \r\nChannel(s) : 2 channels \r\nChannel positions : Front: L R \r\nSampling rate : 48.0 kHz \r\nFrame rate : 46.875 FPS (1024 spf) \r\nCompression mode : Lossy \r\nStream size : 79.0 MiB (2%) \r\nLanguage : English \r\nDefault : Yes \r\nForced : No \r\n\r\nAudio #2 \r\nID : 3 \r\nFormat : AC-3 \r\nFormat/Info : Audio Coding 3 \r\nMode extension : CM (complete main) \r\nFormat settings, Endianness : Big \r\nCodec ID : A_AC3 \r\nDuration : 1 h 28 min \r\nBit rate mode : Constant \r\nBit rate : 384 kb/s \r\nChannel(s) : 6 channels \r\nChannel positions : Front: L C R, Side: L R, LFE \r\nSampling rate : 48.0 kHz \r\nFrame rate : 31.250 FPS (1536 spf) \r\nCompression mode : Lossy \r\nStream size : 242 MiB (7%) \r\nLanguage : English \r\nDefault : No \r\nForced : No","torrent":{"xt":"urn:btih:e2967bc14aab22e50527032a89bb521c4b7666aa","amp;dn":"Stalked+By+My+Doctor+%5B1080p%5D+","amp;tr":["udp%3A%2F%2Ftracker.leechers-paradise.org%3A6969","udp%3A%2F%2Fzer0day.ch%3A1337","udp%3A%2F%2Fopen.demonii.com%3A1337","udp%3A%2F%2Ftracker.coppersurfer.tk%3A6969","udp%3A%2F%2Fexodus.desync.com%3A6969"],"infoHash":"e2967bc14aab22e50527032a89bb521c4b7666aa","infoHashBuffer":{"type":"Buffer","data":[226,150,123,193,74,171,34,229,5,39,3,42,137,187,82,28,75,118,102,170]},"announce":[],"urlList":[]}}